<?xml version="1.0" encoding="utf-8"?>
<!-- Generator: Adobe Illustrator 15.0.0, SVG Export Plug-In . SVG Version: 6.00 Build 0)  -->
<!DOCTYPE svg PUBLIC "-//W3C//DTD SVG 1.1//EN" "http://www.w3.org/Graphics/SVG/1.1/DTD/svg11.dtd">
<svg version="1.1" id="图层_1" xmlns="http://www.w3.org/2000/svg" xmlns:xlink="http://www.w3.org/1999/xlink" x="0px" y="0px"
	 width="29.825px" height="20px" viewBox="0 0 29.825 20" enable-background="new 0 0 29.825 20" xml:space="preserve">
<path fill-rule="evenodd" clip-rule="evenodd" fill="#999999" d="M9,10c0-3.314,2.687-6,6-6s6,2.686,6,6c0,3.313-2.687,6-6,6
	S9,13.313,9,10z M19,10c0-2.209-1.791-4-4-4s-4,1.791-4,4s1.791,4,4,4S19,12.209,19,10z M29.831,10.372l-0.006-0.001
	c-0.048,0.577-0.517,1.036-1.106,1.036c-0.621,0-1.125-0.504-1.125-1.125c0-0.209,0.072-0.395,0.173-0.563l-0.333-0.105
	C25.11,5.099,20.426,2,15,2C9.418,2,4.614,5.274,2.365,10H2.217C4.492,14.726,9.353,18,15,18c3.706,0,7.063-1.422,9.584-3.728
	c0.144-0.437,0.541-0.756,1.025-0.756c0.595,0,1.074,0.477,1.089,1.068l0.327,0.104c-0.167,0.183-0.353,0.348-0.527,0.523
	c-0.079,0.117-0.176,0.213-0.293,0.291C23.299,18.276,19.361,20,15,20C8.208,20,2.402,15.861,0,10h0.174C2.549,4.139,8.287,0,15,0
	s12.451,4.139,14.826,10H30C29.948,10.126,29.886,10.248,29.831,10.372z"/>
</svg>
