<?xml version="1.0" encoding="utf-8"?>
<!-- Generator: Adobe Illustrator 15.0.0, SVG Export Plug-In . SVG Version: 6.00 Build 0)  -->
<!DOCTYPE svg PUBLIC "-//W3C//DTD SVG 1.1//EN" "http://www.w3.org/Graphics/SVG/1.1/DTD/svg11.dtd">
<svg version="1.1" id="图层_1" xmlns="http://www.w3.org/2000/svg" xmlns:xlink="http://www.w3.org/1999/xlink" x="0px" y="0px"
	 width="29.514px" height="29.514px" viewBox="0 0 29.514 29.514" enable-background="new 0 0 29.514 29.514" xml:space="preserve">
<path fill-rule="evenodd" clip-rule="evenodd" fill="#FFFFFF" d="M29.514,29.514c-0.485,0.486-1.273,0.486-1.76,0l-7.422-7.417
	c-2.146,1.751-4.886,2.804-7.873,2.804C5.578,24.901,0,19.327,0,12.451S5.578,0,12.459,0s12.459,5.574,12.459,12.451
	c0,1.405-0.252,2.746-0.684,4.004c-0.022,0.083-0.044,0.162-0.082,0.237c-0.045,0.123-0.081,0.25-0.129,0.371l-0.072-0.072
	c-0.228,0.237-0.543,0.388-0.896,0.388c-0.688,0-1.244-0.557-1.244-1.244l-0.012-0.116c0-0.327,0.133-0.619,0.339-0.841
	l-0.119-0.119c0.231-0.839,0.364-1.719,0.364-2.632c0-5.49-4.453-9.94-9.947-9.94c-5.493,0-9.946,4.45-9.946,9.94
	c0,5.49,4.453,9.94,9.946,9.94c2.724,0,5.189-1.096,6.985-2.868c0.008-0.008,0.013-0.018,0.019-0.027l1.802,0.031l4.28,4.278
	l0.008-0.008l3.984,3.981C30,28.241,30,29.029,29.514,29.514z"/>
</svg>
