<?xml version="1.0" encoding="utf-8"?>
<!-- Generator: Adobe Illustrator 15.0.0, SVG Export Plug-In . SVG Version: 6.00 Build 0)  -->
<!DOCTYPE svg PUBLIC "-//W3C//DTD SVG 1.1//EN" "http://www.w3.org/Graphics/SVG/1.1/DTD/svg11.dtd">
<svg version="1.1" id="图层_1" xmlns="http://www.w3.org/2000/svg" xmlns:xlink="http://www.w3.org/1999/xlink" x="0px" y="0px"
	 width="40px" height="40px" viewBox="0 0 40 40" enable-background="new 0 0 40 40" xml:space="preserve">
<path fill-rule="evenodd" clip-rule="evenodd" fill="#E60012" d="M20,0c11.046,0,20,8.954,20,20s-8.954,20-20,20S0,31.046,0,20
	S8.954,0,20,0z"/>
<path fill-rule="evenodd" clip-rule="evenodd" fill="#FFFFFF" d="M22.829,20l5.657,5.657c0.781,0.781,0.781,2.047,0,2.829
	c-0.781,0.781-2.047,0.781-2.829,0L20,22.829l-5.657,5.657c-0.781,0.781-2.047,0.781-2.829,0c-0.781-0.781-0.781-2.047,0-2.829
	L17.171,20l-5.657-5.657c-0.781-0.781-0.781-2.047,0-2.829c0.781-0.781,2.047-0.781,2.829,0L20,17.171l5.657-5.657
	c0.781-0.781,2.047-0.781,2.829,0c0.781,0.781,0.781,2.047,0,2.829L22.829,20z"/>
</svg>
