<?xml version="1.0" encoding="utf-8"?>
<!-- Generator: Adobe Illustrator 15.0.0, SVG Export Plug-In . SVG Version: 6.00 Build 0)  -->
<!DOCTYPE svg PUBLIC "-//W3C//DTD SVG 1.1//EN" "http://www.w3.org/Graphics/SVG/1.1/DTD/svg11.dtd">
<svg version="1.1" id="图层_1" xmlns="http://www.w3.org/2000/svg" xmlns:xlink="http://www.w3.org/1999/xlink" x="0px" y="0px"
	 width="25px" height="25px" viewBox="0 0 25 25" enable-background="new 0 0 25 25" xml:space="preserve">
<path fill-rule="evenodd" clip-rule="evenodd" fill="#FFFFFF" d="M22.995,15.068h-1.324c-0.215,0.779-0.524,1.517-0.918,2.202
	l1.224,1.224c0.783,0.783,0.783,2.053,0,2.836l-0.709,0.709c-0.783,0.783-2.053,0.783-2.836,0L17.2,20.807
	c-0.683,0.389-1.419,0.692-2.194,0.903v1.284c0,1.107-0.897,2.005-2.005,2.005h-1.003c-1.106,0-2.005-0.897-2.005-2.005V21.71
	c-0.775-0.211-1.511-0.514-2.194-0.903l-1.231,1.232c-0.782,0.783-2.052,0.783-2.835,0L3.023,21.33
	c-0.783-0.783-0.783-2.053,0-2.836l1.224-1.224c-0.395-0.685-0.703-1.423-0.919-2.202H2.005C0.897,15.068,0,14.171,0,13.063v-1.002
	c0-1.107,0.897-2.005,2.005-2.005h1.308C3.52,9.284,3.816,8.55,4.199,7.869L3.023,6.693C2.24,5.91,2.24,4.64,3.023,3.857
	l0.709-0.709c0.783-0.783,2.053-0.783,2.835,0l1.153,1.153c0.706-0.41,1.468-0.731,2.272-0.95V2.005C9.993,0.897,10.892,0,11.998,0
	h1.003c1.107,0,2.005,0.897,2.005,2.005v1.347c0.806,0.219,1.567,0.54,2.272,0.95l1.153-1.153c0.783-0.783,2.053-0.783,2.836,0
	l0.709,0.709c0.783,0.783,0.783,2.052,0,2.835L20.8,7.869c0.384,0.681,0.68,1.415,0.888,2.187h1.308
	c1.107,0,2.005,0.897,2.005,2.005v1.002C25,14.171,24.103,15.068,22.995,15.068z M12.5,7.08c-3.045,0-5.514,2.469-5.514,5.514
	c0,3.045,2.469,5.514,5.514,5.514s5.514-2.469,5.514-5.514C18.014,9.548,15.545,7.08,12.5,7.08z M12.5,15.037
	c-1.385,0-2.507-1.122-2.507-2.506c0-1.384,1.122-2.506,2.507-2.506c1.384,0,2.506,1.122,2.506,2.506
	C15.006,13.915,13.884,15.037,12.5,15.037z"/>
</svg>
