<?xml version="1.0" encoding="utf-8"?>
<!-- Generator: Adobe Illustrator 15.0.0, SVG Export Plug-In . SVG Version: 6.00 Build 0)  -->
<!DOCTYPE svg PUBLIC "-//W3C//DTD SVG 1.1//EN" "http://www.w3.org/Graphics/SVG/1.1/DTD/svg11.dtd">
<svg version="1.1" id="图层_1" xmlns="http://www.w3.org/2000/svg" xmlns:xlink="http://www.w3.org/1999/xlink" x="0px" y="0px"
	 width="50px" height="50px" viewBox="0 0 50 50" enable-background="new 0 0 50 50" xml:space="preserve">
<path fill-rule="evenodd" clip-rule="evenodd" fill="#CCCCCC" d="M25,38.5c-7.456,0-13.5-6.044-13.5-13.5S17.544,11.5,25,11.5
	c7.455,0,13.5,6.044,13.5,13.5S32.455,38.5,25,38.5z M25,13.5c-6.351,0-11.5,5.149-11.5,11.5c0,6.352,5.149,11.5,11.5,11.5
	c6.352,0,11.5-5.148,11.5-11.5C36.5,18.649,31.352,13.5,25,13.5z M16.368,24.767l1.415-1.414l4.95,4.95l8.484-8.485l1.415,1.414
	l-9.899,9.899L16.368,24.767z"/>
</svg>
