<?xml version="1.0" encoding="utf-8"?>
<!-- Generator: Adobe Illustrator 15.0.0, SVG Export Plug-In . SVG Version: 6.00 Build 0)  -->
<!DOCTYPE svg PUBLIC "-//W3C//DTD SVG 1.1//EN" "http://www.w3.org/Graphics/SVG/1.1/DTD/svg11.dtd">
<svg version="1.1" id="图层_1" xmlns="http://www.w3.org/2000/svg" xmlns:xlink="http://www.w3.org/1999/xlink" x="0px" y="0px"
	 width="45px" height="36px" viewBox="0 0 45 36" enable-background="new 0 0 45 36" xml:space="preserve">
<path fill-rule="evenodd" clip-rule="evenodd" fill="#F7900F" d="M42.73,16.583h-4.423V23l-6.192-6.417h-2.948v-6.018
	c0-1.585-1.288-2.87-2.875-2.87H21.5V2.833C21.5,1.82,22.292,1,23.27,1H42.73c0.978,0,1.77,0.82,1.77,1.833V14.75
	C44.5,15.763,43.708,16.583,42.73,16.583z M34.083,7.643l-2.271-0.01c-0.614,0-1.113,0.516-1.113,1.152s0.499,1.153,1.113,1.153
	l2.271,0.011c0.615,0,1.113-0.517,1.113-1.153S34.698,7.643,34.083,7.643z M40.275,7.643l-2.271-0.01
	c-0.614,0-1.113,0.516-1.113,1.152s0.499,1.153,1.113,1.153l2.271,0.011c0.615,0,1.113-0.517,1.113-1.153S40.891,7.643,40.275,7.643
	z M26.5,13v13c0,1.104-0.896,2-2,2h-10l-7,7v-7h-5c-1.104,0-2-0.896-2-2V13c0-1.104,0.896-2,2-2h22C25.604,11,26.5,11.896,26.5,13z
	 M7.842,18.235l-2.566,0.012c-0.695,0-1.259,0.563-1.259,1.258c0,0.694,0.563,1.258,1.259,1.258l2.566-0.012
	c0.695,0,1.259-0.563,1.259-1.258C9.101,18.799,8.537,18.235,7.842,18.235z M14.842,18.235l-2.566,0.012
	c-0.695,0-1.259,0.563-1.259,1.258c0,0.694,0.563,1.258,1.259,1.258l2.566-0.012c0.695,0,1.259-0.563,1.259-1.258
	C16.101,18.799,15.537,18.235,14.842,18.235z M21.842,18.235l-2.566,0.012c-0.695,0-1.259,0.563-1.259,1.258
	c0,0.694,0.563,1.258,1.259,1.258l2.566-0.012c0.695,0,1.259-0.563,1.259-1.258C23.101,18.799,22.537,18.235,21.842,18.235z"/>
</svg>
