<?xml version="1.0" encoding="utf-8"?>
<!-- Generator: Adobe Illustrator 15.0.0, SVG Export Plug-In . SVG Version: 6.00 Build 0)  -->
<!DOCTYPE svg PUBLIC "-//W3C//DTD SVG 1.1//EN" "http://www.w3.org/Graphics/SVG/1.1/DTD/svg11.dtd">
<svg version="1.1" id="图层_1" xmlns="http://www.w3.org/2000/svg" xmlns:xlink="http://www.w3.org/1999/xlink" x="0px" y="0px"
	 width="45px" height="36px" viewBox="0 0 45 36" enable-background="new 0 0 45 36" xml:space="preserve">
<path fill-rule="evenodd" clip-rule="evenodd" fill="#666666" d="M45,34.044C45,34.572,44.555,35,44.005,35
	s-0.996-0.428-0.996-0.956L43.005,34h-0.097C42.134,27.251,36.205,22,29,22s-13.134,5.251-13.909,12h-0.096L15,34.044
	C15,34.572,14.555,35,14.005,35s-0.996-0.428-0.996-0.956L13,33.956c0-0.233,0.098-0.439,0.242-0.605
	c0.976-5.83,5.089-10.589,10.56-12.47C20.364,19.155,18,15.607,18,11.5C18,5.701,22.701,1,28.5,1S39,5.701,39,11.5
	c0,3.949-2.183,7.385-5.404,9.178c5.774,1.729,10.157,6.636,11.163,12.687c0.138,0.164,0.232,0.364,0.232,0.592L45,34.044z M37,11.5
	C37,6.806,33.194,3,28.5,3S20,6.806,20,11.5s3.806,8.5,8.5,8.5S37,16.194,37,11.5z M16.997,4H0.5C0.224,4,0,3.776,0,3.5v-1
	C0,2.224,0.224,2,0.5,2h18.191C18.066,2.611,17.5,3.281,16.997,4z M0.5,17h14.886c0.264,0.694,0.576,1.363,0.941,2H0.5
	C0.224,19,0,18.776,0,18.5v-1C0,17.224,0.224,17,0.5,17z M0.5,32h9.66c-0.088,0.657-0.143,1.323-0.16,2H0.5
	C0.224,34,0,33.776,0,33.5v-1C0,32.224,0.224,32,0.5,32z"/>
</svg>
