<?xml version="1.0" encoding="utf-8"?>
<!-- Generator: Adobe Illustrator 15.0.0, SVG Export Plug-In . SVG Version: 6.00 Build 0)  -->
<!DOCTYPE svg PUBLIC "-//W3C//DTD SVG 1.1//EN" "http://www.w3.org/Graphics/SVG/1.1/DTD/svg11.dtd">
<svg version="1.1" id="图层_1" xmlns="http://www.w3.org/2000/svg" xmlns:xlink="http://www.w3.org/1999/xlink" x="0px" y="0px"
	 width="45px" height="36px" viewBox="0 0 45 36" enable-background="new 0 0 45 36" xml:space="preserve">
<path fill-rule="evenodd" clip-rule="evenodd" fill="#F7900F" d="M37.5,36h-11c-1.657,0-3-1.343-3-3V22c0-1.657,1.343-3,3-3h11
	c1.657,0,3,1.343,3,3v11C40.5,34.657,39.157,36,37.5,36z M37.5,17h-11c-1.657,0-3-1.343-3-3V3c0-1.657,1.343-3,3-3h11
	c1.657,0,3,1.343,3,3v11C40.5,15.657,39.157,17,37.5,17z M18.5,36h-11c-1.657,0-3-1.343-3-3V22c0-1.657,1.343-3,3-3h11
	c1.657,0,3,1.343,3,3v11C21.5,34.657,20.157,36,18.5,36z M18.5,17h-11c-1.657,0-3-1.343-3-3V3c0-1.657,1.343-3,3-3h11
	c1.657,0,3,1.343,3,3v11C21.5,15.657,20.157,17,18.5,17z M19.5,3c0-0.553-0.448-1-1-1h-11c-0.552,0-1,0.447-1,1v11
	c0,0.552,0.448,1,1,1h11c0.552,0,1-0.448,1-1V3z"/>
</svg>
