<?xml version="1.0" encoding="utf-8"?>
<!-- Generator: Adobe Illustrator 15.0.0, SVG Export Plug-In . SVG Version: 6.00 Build 0)  -->
<!DOCTYPE svg PUBLIC "-//W3C//DTD SVG 1.1//EN" "http://www.w3.org/Graphics/SVG/1.1/DTD/svg11.dtd">
<svg version="1.1" id="图层_1" xmlns="http://www.w3.org/2000/svg" xmlns:xlink="http://www.w3.org/1999/xlink" x="0px" y="0px"
	 width="45px" height="36px" viewBox="0 0 45 36" enable-background="new 0 0 45 36" xml:space="preserve">
<path fill-rule="evenodd" clip-rule="evenodd" fill="#666666" d="M42.732,13.745l-0.01,1.323l-1.509,0.01
	C42.53,15.054,42.709,14.886,42.732,13.745z M42.732,13.745l0.005-0.809C42.737,13.256,42.736,13.515,42.732,13.745z M44.9,15.176
	c-0.05,1.141-0.983,2.052-2.137,2.052h-1.141v0.006l-3.169-0.006c-0.593,0-1.074-0.479-1.074-1.072s0.481-1.073,1.074-1.073
	l4.3,0.008l0.008-11.538c-0.034-1.085-0.235-1.299-1.399-1.336L25.241,2.208l-0.363,0.003c0.085-0.002,0.192-0.002,0.287-0.003
	l-1.726-0.001v1.291l0.008-1.277l1.431-0.01c-1.234,0.026-1.415,0.237-1.439,1.638l-0.001,2.486H21.29l0.003-4.453
	c0.157-1.027,1.036-1.816,2.107-1.82L42.859,0.07c1.137,0.051,2.044,0.979,2.05,2.126L44.9,15.176z M42.089,2.216l0.668,0.005
	l0.005,0.758V2.216H42.089z M25.265,25.347l0.006-0.76C25.271,24.872,25.27,25.123,25.265,25.347z M25.253,27.086l-1.607,0.011
	c1.391-0.027,1.591-0.235,1.619-1.75L25.253,27.086z M21.504,20.813l-2.566,0.012c-0.695,0-1.259-0.563-1.259-1.258
	c0-0.695,0.563-1.258,1.259-1.258l2.566-0.012c0.695,0,1.259,0.563,1.259,1.258C22.763,20.25,22.199,20.813,21.504,20.813z
	 M15.211,18.297c0.694,0,1.258,0.563,1.258,1.258c0,0.695-0.563,1.258-1.258,1.258l-2.566,0.012c-0.695,0-1.259-0.563-1.259-1.258
	c0-0.695,0.563-1.258,1.259-1.258L15.211,18.297z M2.643,25.535c-0.005-0.271-0.006-0.574-0.006-0.948L2.643,25.535z M4.424,27.098
	l-1.771-0.012l-0.011-1.551C2.67,26.872,2.879,27.069,4.424,27.098z M5.093,19.566c0-0.695,0.563-1.258,1.259-1.258l2.566-0.012
	c0.694,0,1.259,0.563,1.259,1.258c0,0.695-0.564,1.258-1.259,1.258l-2.566,0.012C5.656,20.824,5.093,20.261,5.093,19.566z
	 M27.779,11.626l0.011,15.755c-0.141,1.257-1.194,2.237-2.489,2.237h-1.338v0.003l-9.501,0.009l-5.98,5.94
	c-0.492,0.491-1.289,0.491-1.78,0s-0.491-1.288,0-1.779l6.232-6.19c0.23-0.289,0.57-0.486,0.97-0.486h0.031c0.006,0,0.013,0,0.019,0
	l11.319-0.011l-0.009-13.171c-0.028-1.644-0.239-1.891-1.688-1.922l1.677,0.012l0.011,1.499l-0.001-1.514l-2.023,0.001
	c0.111,0,0.237,0,0.337,0.002l-0.426-0.002L4.249,12.017c-1.365,0.044-1.602,0.294-1.641,1.567l0.009,13.528l5.042-0.01
	c0.695,0,1.259,0.563,1.259,1.258c0,0.695-0.563,1.258-1.259,1.258l-3.716,0.007v-0.007H2.606c-1.353,0-2.447-1.068-2.506-2.405
	l-0.01-15.219c0.006-1.345,1.07-2.433,2.402-2.492L25.31,9.491C26.565,9.496,27.596,10.421,27.779,11.626z M2.607,12.018
	l0.001,0.894l0.006-0.889L3.4,12.018H2.607z M32.013,9.718c-0.593,0-1.073-0.48-1.073-1.073s0.48-1.073,1.073-1.073l2.189,0.01
	c0.593,0,1.073,0.48,1.073,1.073s-0.48,1.073-1.073,1.073L32.013,9.718z M37.38,7.571l2.189,0.01c0.593,0,1.073,0.48,1.073,1.073
	s-0.48,1.073-1.073,1.073l-2.189-0.01c-0.593,0-1.073-0.48-1.073-1.073S36.787,7.571,37.38,7.571z M33.102,15.092h0.026
	c0.341,0,0.63,0.168,0.827,0.415l5.315,5.28c0.42,0.419,0.42,1.098,0,1.517c-0.419,0.42-1.099,0.42-1.518,0l-5.101-5.066
	l-2.188-0.002V15.09l2.621,0.002C33.091,15.092,33.097,15.092,33.102,15.092z"/>
</svg>
