<?xml version="1.0" encoding="utf-8"?>
<!-- Generator: Adobe Illustrator 15.0.0, SVG Export Plug-In . SVG Version: 6.00 Build 0)  -->
<!DOCTYPE svg PUBLIC "-//W3C//DTD SVG 1.1//EN" "http://www.w3.org/Graphics/SVG/1.1/DTD/svg11.dtd">
<svg version="1.1" id="图层_1" xmlns="http://www.w3.org/2000/svg" xmlns:xlink="http://www.w3.org/1999/xlink" x="0px" y="0px"
	 width="82px" height="82px" viewBox="0 0 82 82" enable-background="new 0 0 82 82" xml:space="preserve">
<path fill-rule="evenodd" clip-rule="evenodd" fill="#F7900F" d="M41,82C18.356,82,0,63.644,0,41S18.356,0,41,0s41,18.356,41,41
	S63.644,82,41,82z M57,37H44V24c0-1.657-1.343-3-3-3c-1.657,0-3,1.343-3,3v13H25c-1.657,0-3,1.343-3,3s1.343,3,3,3h13v13
	c0,1.657,1.343,3,3,3c1.657,0,3-1.343,3-3V43h13c1.657,0,3-1.343,3-3S58.657,37,57,37z"/>
</svg>
