<?xml version="1.0" encoding="utf-8"?>
<!-- Generator: Adobe Illustrator 15.0.0, SVG Export Plug-In . SVG Version: 6.00 Build 0)  -->
<!DOCTYPE svg PUBLIC "-//W3C//DTD SVG 1.1//EN" "http://www.w3.org/Graphics/SVG/1.1/DTD/svg11.dtd">
<svg version="1.1" id="图层_1" xmlns="http://www.w3.org/2000/svg" xmlns:xlink="http://www.w3.org/1999/xlink" x="0px" y="0px"
	 width="45px" height="36px" viewBox="0 0 45 36" enable-background="new 0 0 45 36" xml:space="preserve">
<path fill-rule="evenodd" clip-rule="evenodd" fill="#F7900F" d="M16.04,34c0.274-7.223,6.417-13,13.974-13s13.699,5.777,13.974,13
	H16.04z M29.513,19c-4.694,0-8.5-3.806-8.5-8.5s3.806-8.5,8.5-8.5s8.5,3.806,8.5,8.5S34.208,19,29.513,19z M18.01,4H1.513
	c-0.276,0-0.5-0.224-0.5-0.5v-1c0-0.276,0.224-0.5,0.5-0.5h18.191C19.08,2.611,18.513,3.281,18.01,4z M1.513,17h14.886
	c0.264,0.694,0.576,1.363,0.941,2H1.513c-0.276,0-0.5-0.224-0.5-0.5v-1C1.013,17.224,1.237,17,1.513,17z M1.513,32h9.66
	c-0.088,0.657-0.143,1.323-0.16,2h-9.5c-0.276,0-0.5-0.224-0.5-0.5v-1C1.013,32.224,1.237,32,1.513,32z"/>
</svg>
