<?xml version="1.0" encoding="utf-8"?>
<!-- Generator: Adobe Illustrator 15.0.0, SVG Export Plug-In . SVG Version: 6.00 Build 0)  -->
<!DOCTYPE svg PUBLIC "-//W3C//DTD SVG 1.1//EN" "http://www.w3.org/Graphics/SVG/1.1/DTD/svg11.dtd">
<svg version="1.1" id="图层_1" xmlns="http://www.w3.org/2000/svg" xmlns:xlink="http://www.w3.org/1999/xlink" x="0px" y="0px"
	 width="45px" height="36px" viewBox="0 0 45 36" enable-background="new 0 0 45 36" xml:space="preserve">
<path fill-rule="evenodd" clip-rule="evenodd" fill="#666666" d="M42.299,17.207c-0.39,0.391-1.023,0.391-1.414,0L37,13.322V33
	c0,1.657-1.343,3-3,3h-8v-9c0-0.553-0.448-1-1-1h-5c-0.552,0-1,0.447-1,1v9h-8c-1.657,0-3-1.343-3-3V13.322l-3.885,3.885
	c-0.391,0.391-1.024,0.391-1.414,0c-0.391-0.391-0.391-1.023,0-1.414L15.435,3.06l0.05,0.051C17.222,1.203,19.717,0,22.5,0
	s5.278,1.203,7.015,3.11l0.05-0.051l12.733,12.733C42.689,16.184,42.689,16.816,42.299,17.207z M35,11.322l-3.095-3.095
	c0.009,0.063,0.007,0.129,0.015,0.191L28.5,5h-0.01c-1.369-1.818-3.539-3-5.99-3s-4.621,1.182-5.99,3H16.5l-3.419,3.419
	c0.008-0.063,0.006-0.129,0.015-0.191L10,11.322V33c0,0.552,0.448,1,1,1h6v-8c0-1.104,0.896-2,2-2h7c1.104,0,2,0.896,2,2v8h6
	c0.552,0,1-0.448,1-1V11.322z"/>
</svg>
