<?xml version="1.0" encoding="utf-8"?>
<!-- Generator: Adobe Illustrator 15.0.0, SVG Export Plug-In . SVG Version: 6.00 Build 0)  -->
<!DOCTYPE svg PUBLIC "-//W3C//DTD SVG 1.1//EN" "http://www.w3.org/Graphics/SVG/1.1/DTD/svg11.dtd">
<svg version="1.1" id="图层_1" xmlns="http://www.w3.org/2000/svg" xmlns:xlink="http://www.w3.org/1999/xlink" x="0px" y="0px"
	 width="50px" height="50px" viewBox="0 0 50 50" enable-background="new 0 0 50 50" xml:space="preserve">
<path fill-rule="evenodd" clip-rule="evenodd" fill="#CCCCCC" d="M33,39.5H17c-1.657,0-3-1.343-3-3v-23c0-1.656,1.343-3,3-3h16
	c1.656,0,3,1.344,3,3v23C36,38.157,34.656,39.5,33,39.5z M25.5,38.5c0.828,0,1.5-0.672,1.5-1.5s-0.672-1.5-1.5-1.5S24,36.171,24,37
	S24.672,38.5,25.5,38.5z M34,13.5c0-0.552-0.447-1-1-1H17c-0.552,0-1,0.448-1,1v20c0,0.553,0.448,1,1,1h16c0.553,0,1-0.447,1-1V13.5
	z"/>
</svg>
