<?xml version="1.0" encoding="utf-8"?>
<!-- Generator: Adobe Illustrator 15.0.0, SVG Export Plug-In . SVG Version: 6.00 Build 0)  -->
<!DOCTYPE svg PUBLIC "-//W3C//DTD SVG 1.1//EN" "http://www.w3.org/Graphics/SVG/1.1/DTD/svg11.dtd">
<svg version="1.1" id="图层_1" xmlns="http://www.w3.org/2000/svg" xmlns:xlink="http://www.w3.org/1999/xlink" x="0px" y="0px"
	 width="50px" height="50px" viewBox="0 0 50 50" enable-background="new 0 0 50 50" xml:space="preserve">
<path fill-rule="evenodd" clip-rule="evenodd" fill="#CCCCCC" d="M32,17v-5c0-1.104-0.896-2-2-2H20c-1.104,0-2,0.896-2,2v9h11h3h2h1
	c1.656,0,3,1.343,3,3v15c0,1.657-1.344,3-3,3H15c-1.657,0-3-1.343-3-3V24c0-1.657,1.343-3,3-3h1v-9c0-2.209,1.791-4,4-4h10
	c2.209,0,4,1.791,4,4v5H32z M15,23c-0.552,0-1,0.447-1,1v15c0,0.553,0.448,1,1,1h20c0.553,0,1-0.447,1-1V24c0-0.553-0.447-1-1-1H15z
	 M27,32.221V35c0,0.552-0.447,1-1,1h-2c-0.552,0-1-0.448-1-1v-2.778c-0.609-0.55-1-1.337-1-2.222c0-1.657,1.343-3,3-3
	c1.656,0,3,1.343,3,3C28,30.884,27.609,31.671,27,32.221z"/>
</svg>
