<?xml version="1.0" encoding="utf-8"?>
<!-- Generator: Adobe Illustrator 15.0.0, SVG Export Plug-In . SVG Version: 6.00 Build 0)  -->
<!DOCTYPE svg PUBLIC "-//W3C//DTD SVG 1.1//EN" "http://www.w3.org/Graphics/SVG/1.1/DTD/svg11.dtd">
<svg version="1.1" id="图层_1" xmlns="http://www.w3.org/2000/svg" xmlns:xlink="http://www.w3.org/1999/xlink" x="0px" y="0px"
	 width="50px" height="50px" viewBox="0 0 50 50" enable-background="new 0 0 50 50" xml:space="preserve">
<path fill-rule="evenodd" clip-rule="evenodd" fill="#CCCCCC" d="M37.664,38.038c0,0.719-0.568,1.301-1.27,1.301
	s-1.27-0.582-1.27-1.301l-0.002-0.016h-0.035c-0.602-5.042-4.715-8.965-9.76-9.129c-0.109,0.004-0.217,0.018-0.326,0.018
	s-0.217-0.014-0.324-0.018c-5.046,0.164-9.159,4.087-9.761,9.129h-0.031l0.001,0.016c0,0.719-0.568,1.301-1.271,1.301
	c-0.701,0-1.27-0.582-1.27-1.301l-0.012-0.121c0-0.193,0.048-0.374,0.122-0.539c0.655-4.527,3.552-8.304,7.524-10.057
	c-2.345-1.643-3.886-4.404-3.886-7.535c0-5.04,3.987-9.125,8.906-9.125c4.918,0,8.906,4.085,8.906,9.125
	c0,3.13-1.541,5.89-3.885,7.533c4.031,1.775,6.959,5.632,7.561,10.244c0.031,0.114,0.068,0.229,0.068,0.354L37.664,38.038z
	 M31.361,19.789c0-3.6-2.85-6.519-6.361-6.519c-3.514,0-6.362,2.919-6.362,6.519c0,3.599,2.849,6.517,6.362,6.517
	C28.512,26.305,31.361,23.387,31.361,19.789z"/>
</svg>
